<svg width="55" height="15.03" viewBox="0 0 278 76" xmlns="http://www.w3.org/2000/svg">
  <g fill="none" fill-rule="evenodd">
    <path d="M20.185 75.66c-7.055 0-12.495-1.615-17.68-6.12l4.845-7.82c3.315 3.655 7.65 5.1 12.835 5.1 5.185 0 11.305-2.295 11.305-10.37v-4.165c-3.23 4.08-7.65 6.46-12.665 6.46C8.54 58.745.72 51.52.72 37.835c0-13.43 7.735-20.91 18.105-20.91 4.93 0 9.35 2.125 12.665 6.29v-5.27h10.88v38.25c0 15.64-12.07 19.465-22.185 19.465zm2.04-26.52c3.57 0 7.48-2.04 9.265-4.675v-13.26c-1.785-2.72-5.695-4.675-9.265-4.675-6.12 0-10.37 4.25-10.37 11.305s4.25 11.305 10.37 11.305zm36.77-35.615c3.57 0 6.46-2.89 6.46-6.46S62.566.69 58.996.69c-3.484 0-6.46 2.805-6.46 6.375s2.976 6.46 6.46 6.46zM64.436 59V17.945H53.642V59h10.795zm28.102 16.66c-7.055 0-12.495-1.615-17.68-6.12l4.845-7.82c3.315 3.655 7.65 5.1 12.835 5.1 5.185 0 11.305-2.295 11.305-10.37v-4.165c-3.23 4.08-7.65 6.46-12.665 6.46-10.285 0-18.105-7.225-18.105-20.91 0-13.43 7.735-20.91 18.105-20.91 4.93 0 9.35 2.125 12.665 6.29v-5.27h10.88v38.25c0 15.64-12.07 19.465-22.185 19.465zm2.04-26.52c3.57 0 7.48-2.04 9.265-4.675v-13.26c-1.785-2.72-5.695-4.675-9.265-4.675-6.12 0-10.37 4.25-10.37 11.305s4.25 11.305 10.37 11.305z" fill="#79797A"/>
    <path d="M166.475 59L149.73 36.56l16.235-18.615h-13.26L137.15 36.22V2.305h-10.795V59h10.795V48.46l4.93-5.27L152.96 59h13.515zm11.27-45.475c3.57 0 6.46-2.89 6.46-6.46S181.316.69 177.746.69c-3.484 0-6.46 2.805-6.46 6.375s2.976 6.46 6.46 6.46zM183.186 59V17.945h-10.794V59h10.795zm50.372 0h-10.88v-5.27c-3.23 4.08-7.735 6.29-12.665 6.29-10.37 0-18.19-7.82-18.19-21.505 0-13.43 7.735-21.59 18.19-21.59 4.845 0 9.435 2.125 12.665 6.29V2.305h10.88V59zm-20.23-8.585c3.655 0 7.565-1.955 9.35-4.675V31.205c-1.785-2.72-5.695-4.675-9.35-4.675-6.12 0-10.37 4.845-10.37 11.985 0 7.055 4.25 11.9 10.37 11.9zm46.29 9.605c11.39 0 17.766-5.695 17.766-13.175 0-16.575-24.31-11.475-24.31-17.595 0-2.295 2.55-4.08 6.46-4.08 5.015 0 9.69 2.125 12.155 4.76l4.335-7.395c-4.08-3.23-9.605-5.61-16.575-5.61-10.795 0-16.83 6.035-16.83 12.92 0 16.15 24.395 10.625 24.395 17.425 0 2.55-2.21 4.42-6.885 4.42-5.1 0-11.22-2.805-14.195-5.61l-4.675 7.565c4.335 3.995 11.22 6.375 18.36 6.375z" fill="#5DC0CF"/>
  </g>
</svg>
