<?xml version="1.0" encoding="utf-8"?>
<!-- Generator: Adobe Illustrator 19.0.0, SVG Export Plug-In . SVG Version: 6.00 Build 0)  -->
<!DOCTYPE svg PUBLIC "-//W3C//DTD SVG 1.0//EN" "http://www.w3.org/TR/2001/REC-SVG-20010904/DTD/svg10.dtd">
<svg version="1.0" id="Layer_1" xmlns="http://www.w3.org/2000/svg" xmlns:xlink="http://www.w3.org/1999/xlink" x="0px" y="0px"
	 viewBox="0 0 58 8" style="enable-background:new 0 0 58 8;" xml:space="preserve">
<g>
	<path style="fill:#79797A;" d="M12.3,1.9c-0.4-0.5-0.9-0.7-1.5-0.7c-1.2,0-2.1,0.9-2.1,2.4c0,1.6,0.9,2.4,2.1,2.4
		c0.6,0,1.1-0.3,1.5-0.8v0.5C12.3,6.7,11.6,7,11,7S9.9,6.8,9.5,6.4L8.9,7.3C9.5,7.9,10.2,8,11,8c1.2,0,2.6-0.4,2.6-2.3V1.3h-1.3V1.9
		z M12.3,4.4c-0.2,0.3-0.7,0.5-1.1,0.5c-0.7,0-1.2-0.5-1.2-1.3s0.5-1.3,1.2-1.3c0.4,0,0.9,0.2,1.1,0.5V4.4z"/>
	<rect x="14.8" y="1.3" style="fill:#79797A;" width="1.3" height="4.8"/>
	<path style="fill:#79797A;" d="M20.6,1.3v0.6c-0.4-0.5-0.9-0.7-1.5-0.7c-1.2,0-2.1,0.9-2.1,2.4c0,1.6,0.9,2.4,2.1,2.4
		c0.6,0,1.1-0.3,1.5-0.8v0.5c0,0.9-0.7,1.2-1.3,1.2s-1.1-0.2-1.5-0.6l-0.6,0.9C17.8,7.9,18.5,8,19.3,8c1.2,0,2.6-0.4,2.6-2.3V1.3
		H20.6z M20.6,4.4c-0.2,0.3-0.7,0.5-1.1,0.5c-0.7,0-1.2-0.5-1.2-1.3s0.5-1.3,1.2-1.3c0.4,0,0.9,0.2,1.1,0.5V4.4z"/>
</g>
<g>
	<path style="fill:#F16623;" d="M29,1.2c-0.7,0-1.4,0.4-1.6,0.9c-0.2-0.5-0.6-0.9-1.3-0.9c-0.7,0-1.4,0.5-1.6,0.7V1.3h-1.3v4.8h1.3
		V2.9c0.2-0.3,0.6-0.6,1-0.6c0.5,0,0.7,0.3,0.7,0.8v3h1.3V2.9c0.2-0.3,0.5-0.6,1-0.6c0.5,0,0.7,0.3,0.7,0.8v3h1.3V2.6
		C30.4,1.7,29.9,1.2,29,1.2z"/>
	<path style="fill:#F16623;" d="M33.7,1.2c-0.8,0-1.5,0.2-2.1,0.8l0.5,0.8c0.4-0.4,0.9-0.6,1.4-0.6c0.6,0,1.1,0.3,1.1,0.8v0.6
		c-0.3-0.4-0.9-0.6-1.5-0.6c-0.8,0-1.7,0.4-1.7,1.5c0,1.1,0.9,1.6,1.7,1.6c0.6,0,1.2-0.2,1.5-0.6v0.5h1.3V3
		C35.8,1.6,34.8,1.2,33.7,1.2z M34.6,4.9c-0.2,0.3-0.6,0.4-1,0.4c-0.5,0-0.9-0.3-0.9-0.7c0-0.5,0.4-0.7,0.9-0.7c0.4,0,0.8,0.1,1,0.4
		V4.9z"/>
	<path style="fill:#F16623;" d="M38,2.6c0-0.3,0.3-0.5,0.8-0.5c0.6,0,1.1,0.2,1.4,0.6l0.5-0.9c-0.5-0.4-1.1-0.7-1.9-0.7
		c-1.3,0-2,0.7-2,1.5c0,1.9,2.8,1.2,2.8,2c0,0.3-0.3,0.5-0.8,0.5c-0.6,0-1.3-0.3-1.7-0.7l-0.5,0.9c0.5,0.5,1.3,0.7,2.1,0.7
		c1.3,0,2.1-0.7,2.1-1.5C40.9,2.7,38,3.3,38,2.6z"/>
	<path style="fill:#F16623;" d="M43.8,5.1c-0.3,0-0.4-0.2-0.4-0.5V2.4h1V1.3h-1V0H42v1.3h-0.8v1.1H42v2.5c0,0.9,0.5,1.3,1.4,1.3
		c0.5,0,0.9-0.1,1.1-0.3l-0.3-1C44.1,5,43.9,5.1,43.8,5.1z"/>
	<path style="fill:#F16623;" d="M47.3,1.2c-1.5,0-2.5,1.1-2.5,2.5c0,1.5,1.1,2.5,2.6,2.5c0.7,0,1.5-0.2,2-0.7l-0.6-0.8
		c-0.3,0.3-0.9,0.5-1.3,0.5c-0.8,0-1.3-0.5-1.4-1.1h3.6V3.8C49.7,2.3,48.7,1.2,47.3,1.2z M46.1,3.3c0.1-0.5,0.4-1.1,1.2-1.1
		c0.8,0,1.2,0.6,1.2,1.1H46.1z"/>
	<path style="fill:#F16623;" d="M51.9,2V1.3h-1.3v4.8h1.3V2.9c0.2-0.3,0.8-0.5,1.2-0.5c0.1,0,0.3,0,0.3,0V1.2
		C52.8,1.2,52.2,1.5,51.9,2z"/>
	<path style="fill:#F16623;" d="M55.2,2.6c0-0.3,0.3-0.5,0.8-0.5c0.6,0,1.1,0.2,1.4,0.6l0.5-0.9c-0.5-0.4-1.1-0.7-1.9-0.7
		c-1.3,0-2,0.7-2,1.5c0,1.9,2.8,1.2,2.8,2c0,0.3-0.3,0.5-0.8,0.5c-0.6,0-1.3-0.3-1.7-0.7l-0.5,0.9c0.5,0.5,1.3,0.7,2.1,0.7
		c1.3,0,2.1-0.7,2.1-1.5C58,2.7,55.2,3.3,55.2,2.6z"/>
</g>
<path style="fill:#F16623;" d="M6.3,5.7c0,0.6-0.5,1.2-1.2,1.2H1.5c-0.6,0-1.2-0.5-1.2-1.2V2.1c0-0.6,0.5-1.2,1.2-1.2h3.6
	c0.6,0,1.2,0.5,1.2,1.2V5.7z"/>
<polygon style="fill:#FFFFFF;" points="3.3,2.2 3.7,3.4 4.9,3.4 4,4.2 4.3,5.4 3.3,4.7 2.2,5.4 2.6,4.2 1.6,3.4 2.8,3.4 "/>
</svg>
