<?xml version="1.0" encoding="utf-8"?>
<!-- Generator: Adobe Illustrator 16.0.0, SVG Export Plug-In . SVG Version: 6.00 Build 0)  -->
<!DOCTYPE svg PUBLIC "-//W3C//DTD SVG 1.1//EN" "http://www.w3.org/Graphics/SVG/1.1/DTD/svg11.dtd">
<svg version="1.1" id="Layer_1" xmlns="http://www.w3.org/2000/svg" xmlns:xlink="http://www.w3.org/1999/xlink" x="0px" y="0px"
	 width="222.5px" height="246.5px" viewBox="0 0 222.5 246.5" enable-background="new 0 0 222.5 246.5" xml:space="preserve">
<g>
	<defs>
		<rect id="SVGID_1_" x="-0.934" y="-1.5" width="224.852" height="248.023"/>
	</defs>
	<clipPath id="SVGID_2_">
		<use xlink:href="#SVGID_1_"  overflow="visible"/>
	</clipPath>
	<g clip-path="url(#SVGID_2_)">
		<path fill-rule="evenodd" clip-rule="evenodd" fill="#63C2CE" d="M115.985,9.945c4.456,0.862,8.991,1.449,13.354,2.644
			c10.58,2.9,19.669,8.495,27.326,16.309c8.541,8.708,14.19,19.069,16.729,31.034c2.881,13.538,1.55,26.687-4.121,39.323
			c-5.596,12.463-14.357,22.123-26.185,28.968c-11.047,6.391-22.992,9.145-35.726,8.297c-15.625-1.041-29.118-7.067-40.275-18.018
			c-10.064-9.869-16.165-21.872-18.232-35.869c-1.995-13.517,0.135-26.367,6.403-38.481c6.151-11.875,15.239-20.903,27.104-27.101
			c7.381-3.858,15.238-6.114,23.544-6.841c0.36-0.026,0.72-0.173,1.076-0.265C109.986,9.945,112.986,9.945,115.985,9.945z"/>
		<g>
			<path fill-rule="evenodd" clip-rule="evenodd" stroke="#000000" stroke-width="3" stroke-miterlimit="10" d="M97.305,104.45
				c0.368-1.318,0.651-2.319,0.977-3.482c4.283,0.724,8.48,1.438,13.103,2.223c-0.758,4.6-1.476,8.981-2.262,13.777
				c-4.44-0.73-8.708-1.431-13.259-2.18c0.152-1.396,0.286-2.613,0.452-4.101c-17.286-4.455-32.395-12.799-45.41-25.354
				c0.687-0.776,1.274-1.487,1.908-2.155c0.662-0.696,1.359-1.351,2.312-2.288C67.127,92.194,80.903,100.304,97.305,104.45z"/>
			<path fill-rule="evenodd" clip-rule="evenodd" stroke="#000000" stroke-width="3" stroke-miterlimit="10" d="M167.67,103.624
				c0-1.115,0-1.946,0-2.773c0.003-14.697-0.188-29.393,0.093-44.083c0.121-6.23-1.373-11.863-4.169-17.238
				c-9.164-17.611-23.881-27.611-43.311-30.408c-16.917-2.436-32.387,1.595-45.852,12.365c-8.78,7.019-14.707,16.032-17.935,26.79
				c-0.436,1.445-0.607,3.021-0.609,4.535c-0.045,15.928-0.03,31.851-0.03,47.777c0,0.909,0,1.817,0,2.896
				c-3.476,0-6.793,0.332-10.014-0.084c-3.871-0.497-7.458-5.144-7.511-9.433c-0.107-8.691-0.145-17.387,0.019-26.079
				c0.097-5.114,3.738-8.521,9.384-9.675c1.421-5.517,2.248-11.059,4.263-16.129C60.145,21.588,75.522,8.969,96.791,4.375
				c25.847-5.58,48.122,1.496,65.572,21.775c7.46,8.668,11.477,18.997,12.642,30.391c0.113,1.104,0.222,1.779,1.641,1.916
				c4.542,0.447,8.461,4.685,8.527,9.415c0.124,8.694,0.135,17.388,0,26.079c-0.088,5.491-4.565,9.657-9.993,9.672
				C172.801,103.628,170.422,103.624,167.67,103.624z"/>
		</g>
		<g>
			<path d="M-4.788,291.223c0-3.379,0-6.753,0-10.133c0.126-0.667,0.322-1.329,0.355-2.009c0.562-11.507,2.373-22.828,5.319-33.953
				c7.193-27.167,19.884-51.26,40.455-70.74c17.724-16.778,38.507-27.188,63.146-29.097c18.891-1.46,36.601,2.631,53.182,11.62
				c20.44,11.078,35.841,27.355,47.517,47.233c15.412,26.238,22.348,54.787,22.587,85.088c0.02,2.437-0.965,4.307-2.834,5.591
				c-2.302,1.578-4.685,3.144-7.226,4.254c-9.965,4.356-20.564,6.445-31.219,8.178c-18.134,2.951-36.433,4.459-54.803,4.98
				c-1.361,0.039-2.718,0.239-4.076,0.362c-10.754,0-21.506,0-32.258,0c-1.045-0.117-2.09-0.302-3.139-0.336
				c-19.3-0.546-38.518-2.096-57.568-5.335c-10.02-1.706-19.974-3.761-29.379-7.815C1.254,297.376-2.688,295.45-4.788,291.223z"/>
			<g>
				<path fill="#FFFFFF" d="M135.559,209.871c0,5.001-4.056,9.06-9.057,9.06H98.48c-5.006,0-9.061-4.059-9.061-9.06V181.85
					c0-5.004,4.054-9.057,9.061-9.057h28.021c5.001,0,9.057,4.053,9.057,9.057V209.871z"/>
				<polygon fill="#F16624" points="112.488,182.549 116.105,192.286 126.485,192.719 118.339,199.163 121.142,209.167 
					112.488,203.414 103.843,209.167 106.643,199.163 98.494,192.719 108.876,192.286 				"/>
			</g>
		</g>
	</g>
</g>
</svg>
