<?xml version="1.0" encoding="utf-8"?>
<!-- Generator: Adobe Illustrator 16.0.0, SVG Export Plug-In . SVG Version: 6.00 Build 0)  -->
<!DOCTYPE svg PUBLIC "-//W3C//DTD SVG 1.1//EN" "http://www.w3.org/Graphics/SVG/1.1/DTD/svg11.dtd">
<svg version="1.1" id="Layer_1" xmlns="http://www.w3.org/2000/svg" xmlns:xlink="http://www.w3.org/1999/xlink" x="0px" y="0px"
	 width="286.554px" height="246.327px" viewBox="0 0 286.554 246.327" enable-background="new 0 0 286.554 246.327"
	 xml:space="preserve">
<g>
	<g>
		
			<rect x="86.179" y="24.334" transform="matrix(0.9298 0.3679 -0.3679 0.9298 57.2539 -54.3364)" fill-rule="evenodd" clip-rule="evenodd" fill="#F16624" width="169.885" height="197.286"/>
		
			<rect x="103.448" y="36.603" transform="matrix(0.9298 0.368 -0.368 0.9298 51.3622 -58.076)" fill-rule="evenodd" clip-rule="evenodd" fill="#FFFFFF" width="149.059" height="138.099"/>
		<g>
			<defs>
				
					<rect id="SVGID_1_" x="103.448" y="36.603" transform="matrix(0.9298 0.368 -0.368 0.9298 51.3622 -58.076)" width="149.059" height="138.099"/>
			</defs>
			<clipPath id="SVGID_2_">
				<use xlink:href="#SVGID_1_"  overflow="visible"/>
			</clipPath>
			<g clip-path="url(#SVGID_2_)">
				<path fill="#63C2CE" d="M80.087,172.354c0.701-1.771,1.402-3.54,2.101-5.311c0.204-0.327,0.446-0.634,0.601-0.979
					c2.683-5.919,5.982-11.48,9.837-16.699c9.407-12.751,21.058-22.75,35.887-28.694c12.775-5.122,25.829-6.269,39.143-2.157
					c10.209,3.153,18.646,8.973,25.472,17.126c8.42,10.051,13.118,21.778,15.113,34.624c2.639,16.953,0.353,33.362-5.812,49.3
					c-0.494,1.28-1.397,2.056-2.646,2.344c-1.532,0.35-3.105,0.674-4.67,0.729c-6.126,0.217-12.118-0.889-18.061-2.188
					c-10.126-2.217-20.028-5.221-29.769-8.761c-0.725-0.262-1.475-0.438-2.212-0.654c-5.637-2.231-11.279-4.461-16.914-6.693
					c-0.525-0.275-1.032-0.594-1.578-0.826c-10.007-4.292-19.759-9.091-29.074-14.742c-4.903-2.973-9.695-6.117-13.782-10.193
					C81.978,176.838,80.31,175.008,80.087,172.354z"/>
				<path fill-rule="evenodd" clip-rule="evenodd" fill="#63C2CE" d="M202.245,48.729c2.157,1.379,4.413,2.625,6.453,4.16
					c4.943,3.712,8.549,8.531,10.944,14.217c2.67,6.339,3.482,12.942,2.331,19.742c-1.3,7.695-4.725,14.312-10.319,19.762
					c-5.521,5.374-12.118,8.622-19.737,9.757c-7.12,1.059-13.956,0.023-20.455-3.062c-7.976-3.785-13.797-9.746-17.375-17.801
					c-3.229-7.266-3.938-14.823-2.118-22.591c1.756-7.499,5.539-13.793,11.337-18.845c5.692-4.952,12.33-7.798,19.834-8.587
					c4.673-0.491,9.261-0.045,13.765,1.299c0.195,0.058,0.412,0.056,0.621,0.083C199.1,47.485,200.672,48.107,202.245,48.729z"/>
			</g>
		</g>
	</g>
	<g>
		<g>
			<polygon fill="#FFFFFF" points="146.45,185.326 142.409,189.865 136.757,187.901 139.73,193.143 136.069,198.003 
				141.948,196.701 145.344,201.672 145.999,195.624 151.757,193.837 146.283,191.398 			"/>
			<path fill="#FFFFFF" d="M135.71,198.911c-0.189-0.074-0.351-0.204-0.465-0.383c-0.223-0.342-0.209-0.789,0.043-1.118l3.272-4.344
				l-2.657-4.682c-0.2-0.354-0.161-0.798,0.1-1.111c0.263-0.312,0.688-0.433,1.074-0.295l5.033,1.75l3.607-4.055
				c0.274-0.306,0.709-0.408,1.092-0.258l0,0c0.382,0.15,0.628,0.524,0.618,0.935l-0.148,5.423l4.873,2.169
				c0.374,0.165,0.605,0.544,0.581,0.951c-0.025,0.408-0.3,0.758-0.688,0.878l-5.145,1.597l-0.588,5.406
				c-0.043,0.41-0.335,0.748-0.732,0.846c-0.398,0.096-0.815-0.062-1.047-0.397l-3.02-4.422l-5.235,1.155
				C136.084,199.002,135.888,198.982,135.71,198.911z M138.891,189.679l1.69,2.98c0.194,0.339,0.167,0.761-0.073,1.072l-2.062,2.744
				l3.29-0.729c0.392-0.086,0.798,0.073,1.02,0.404l1.898,2.775l0.369-3.408c0.043-0.39,0.312-0.714,0.684-0.83l3.277-1.016
				l-3.101-1.377c-0.362-0.162-0.589-0.529-0.581-0.923l0.095-3.391l-2.258,2.534c-0.261,0.294-0.68,0.405-1.055,0.274
				L138.891,189.679z"/>
		</g>
		<g>
			<polygon fill="#FFFFFF" points="119.036,174.479 114.995,179.018 109.342,177.053 112.316,182.294 108.655,187.154 
				114.535,185.854 117.928,190.823 118.583,184.775 124.342,182.988 118.869,180.55 			"/>
			<path fill="#FFFFFF" d="M108.295,188.063c-0.188-0.076-0.351-0.205-0.466-0.384c-0.223-0.342-0.205-0.787,0.041-1.118
				l3.275-4.343l-2.657-4.683c-0.201-0.354-0.161-0.796,0.099-1.112c0.265-0.311,0.688-0.432,1.075-0.294l5.033,1.75l3.607-4.053
				c0.272-0.308,0.709-0.41,1.094-0.259l0,0c0.378,0.149,0.626,0.523,0.616,0.934l-0.147,5.423l4.872,2.17
				c0.375,0.166,0.608,0.545,0.581,0.95c-0.025,0.408-0.3,0.758-0.688,0.88l-5.146,1.595l-0.587,5.406
				c-0.043,0.41-0.336,0.748-0.732,0.847c-0.4,0.095-0.815-0.062-1.048-0.398l-3.018-4.422l-5.236,1.156
				C108.669,188.153,108.473,188.133,108.295,188.063z M111.476,178.829l1.689,2.981c0.195,0.339,0.169,0.761-0.071,1.073
				l-2.063,2.743l3.291-0.729c0.392-0.086,0.797,0.072,1.021,0.403l1.896,2.777l0.371-3.407c0.043-0.391,0.311-0.717,0.682-0.832
				l3.275-1.016l-3.098-1.377c-0.362-0.162-0.587-0.529-0.581-0.923l0.093-3.392l-2.256,2.534c-0.262,0.295-0.68,0.407-1.055,0.276
				L111.476,178.829z"/>
		</g>
		<g>
			<polygon fill="#FFFFFF" points="91.62,163.63 87.578,168.169 81.925,166.204 84.901,171.444 81.24,176.305 87.119,175.005 
				90.514,179.975 91.167,173.926 96.928,172.141 91.455,169.701 			"/>
			<path fill="#FFFFFF" d="M80.88,177.215c-0.189-0.076-0.35-0.205-0.466-0.382c-0.223-0.343-0.207-0.789,0.044-1.118l3.272-4.345
				l-2.657-4.684c-0.202-0.354-0.161-0.795,0.099-1.111c0.264-0.311,0.689-0.43,1.074-0.295l5.036,1.752l3.606-4.055
				c0.273-0.308,0.708-0.41,1.092-0.258l0,0c0.38,0.149,0.627,0.522,0.617,0.935l-0.147,5.423l4.873,2.169
				c0.373,0.165,0.606,0.544,0.58,0.949c-0.024,0.411-0.299,0.758-0.689,0.881l-5.144,1.595l-0.586,5.406
				c-0.044,0.411-0.336,0.747-0.734,0.847c-0.398,0.096-0.814-0.062-1.046-0.398l-3.02-4.422l-5.233,1.156
				C81.254,177.304,81.058,177.284,80.88,177.215z M84.06,167.98l1.691,2.981c0.194,0.341,0.167,0.761-0.071,1.073l-2.064,2.743
				l3.29-0.729c0.394-0.086,0.798,0.074,1.02,0.403l1.898,2.777l0.371-3.407c0.044-0.391,0.312-0.717,0.683-0.832l3.275-1.017
				l-3.098-1.376c-0.362-0.162-0.588-0.529-0.58-0.923l0.093-3.392l-2.256,2.534c-0.261,0.295-0.68,0.407-1.056,0.276L84.06,167.98z
				"/>
		</g>
		<g>
			<polygon fill="#FFFFFF" points="173.865,196.175 173.706,202.251 179.172,204.687 173.415,206.473 172.762,212.521 
				169.364,207.55 163.488,208.852 167.146,203.991 164.171,198.75 169.827,200.716 			"/>
			<path fill="#FFFFFF" d="M172.403,213.431c-0.179-0.071-0.338-0.191-0.45-0.357l-3.024-4.424l-5.23,1.156
				c-0.402,0.093-0.811-0.077-1.036-0.427c-0.22-0.342-0.207-0.789,0.043-1.118l3.271-4.346l-2.658-4.682
				c-0.2-0.355-0.162-0.797,0.1-1.111c0.263-0.312,0.688-0.432,1.075-0.296l5.037,1.751l3.604-4.055
				c0.547-0.615,1.731-0.146,1.708,0.677l-0.144,5.425l4.869,2.167c0.375,0.164,0.604,0.544,0.583,0.951
				c-0.026,0.409-0.299,0.758-0.689,0.879l-5.142,1.596l-0.586,5.408c-0.043,0.41-0.339,0.746-0.734,0.846
				C172.793,213.52,172.587,213.504,172.403,213.431z M169.725,206.638c0.177,0.071,0.336,0.192,0.445,0.361l1.903,2.784
				l0.369-3.415c0.043-0.389,0.312-0.716,0.682-0.832l3.271-1.016l-3.09-1.375c-0.362-0.162-0.588-0.527-0.579-0.923l0.091-3.396
				l-2.258,2.54c-0.262,0.294-0.681,0.405-1.056,0.274l-3.198-1.113l1.691,2.979c0.193,0.339,0.167,0.763-0.073,1.073l-2.062,2.743
				l3.288-0.729C169.346,206.547,169.546,206.568,169.725,206.638z"/>
		</g>
		<g>
			<polygon fill="#FFFFFF" points="201.28,207.021 201.12,213.099 206.586,215.535 200.832,217.321 200.177,223.37 196.779,218.396 
				190.901,219.7 194.562,214.84 191.586,209.6 197.242,211.564 			"/>
			<path fill="#FFFFFF" d="M199.817,224.279c-0.178-0.071-0.335-0.191-0.451-0.357l-3.022-4.423l-5.232,1.156
				c-0.4,0.091-0.811-0.08-1.03-0.426c-0.222-0.344-0.205-0.79,0.039-1.121l3.271-4.345l-2.658-4.682
				c-0.2-0.355-0.162-0.797,0.103-1.111c0.26-0.312,0.688-0.43,1.07-0.298l5.037,1.754l3.604-4.057
				c0.549-0.615,1.731-0.146,1.71,0.679l-0.141,5.424l4.871,2.169c0.37,0.162,0.604,0.543,0.578,0.949
				c-0.027,0.407-0.299,0.758-0.689,0.877l-5.142,1.599l-0.582,5.409c-0.047,0.407-0.339,0.744-0.738,0.844
				C200.213,224.369,200.001,224.353,199.817,224.279z M197.14,217.487c0.177,0.069,0.336,0.191,0.446,0.36l1.902,2.782l0.369-3.412
				c0.043-0.391,0.312-0.717,0.682-0.832l3.272-1.018l-3.092-1.375c-0.359-0.159-0.588-0.527-0.579-0.922l0.091-3.396l-2.26,2.537
				c-0.26,0.295-0.679,0.407-1.051,0.278l-3.201-1.115l1.689,2.978c0.195,0.341,0.169,0.763-0.066,1.077l-2.062,2.743l3.285-0.729
				C196.763,217.397,196.961,217.418,197.14,217.487z"/>
		</g>
	</g>
</g>
<g>
	<rect x="0" y="39.434" fill-rule="evenodd" clip-rule="evenodd" fill="#F16624" width="169.885" height="197.284"/>
	<rect x="10.413" y="50.394" fill-rule="evenodd" clip-rule="evenodd" fill="#FFFFFF" width="149.06" height="138.1"/>
	<g>
		<defs>
			<rect id="SVGID_3_" x="10.413" y="50.394" width="149.06" height="138.1"/>
		</defs>
		<clipPath id="SVGID_4_">
			<use xlink:href="#SVGID_3_"  overflow="visible"/>
		</clipPath>
		<g clip-path="url(#SVGID_4_)">
			<path fill="#63C2CE" d="M18.463,217.485c0-1.904,0-3.807,0-5.709c0.07-0.381,0.181-0.754,0.199-1.133
				c0.317-6.492,1.337-12.876,3.002-19.148c4.055-15.317,11.209-28.902,22.811-39.886c9.994-9.464,21.711-15.333,35.603-16.408
				c10.654-0.825,20.64,1.483,29.987,6.552c11.527,6.247,20.211,15.424,26.793,26.635c8.691,14.793,12.602,30.893,12.736,47.978
				c0.011,1.373-0.543,2.429-1.599,3.153c-1.297,0.89-2.64,1.771-4.074,2.398c-5.617,2.455-11.596,3.632-17.6,4.61
				c-10.229,1.663-20.544,2.514-30.903,2.808c-0.769,0.023-1.532,0.136-2.297,0.205c-6.062,0-12.13,0-18.19,0
				c-0.59-0.064-1.179-0.172-1.771-0.188c-10.884-0.308-21.718-1.181-32.46-3.011c-5.653-0.96-11.264-2.121-16.564-4.405
				C21.871,220.958,19.646,219.871,18.463,217.485z"/>
			<path fill-rule="evenodd" clip-rule="evenodd" fill="#63C2CE" d="M86.562,57.585c2.513,0.488,5.07,0.817,7.532,1.493
				c5.963,1.633,11.089,4.788,15.408,9.192c4.815,4.912,8.001,10.753,9.431,17.5c1.623,7.634,0.874,15.047-2.324,22.173
				c-3.154,7.027-8.096,12.477-14.762,16.334c-6.232,3.605-12.968,5.157-20.147,4.679c-8.808-0.585-16.416-3.985-22.707-10.158
				c-5.676-5.569-9.115-12.335-10.282-20.229c-1.125-7.619,0.075-14.864,3.608-21.693c3.471-6.698,8.595-11.789,15.282-15.283
				c4.165-2.176,8.594-3.449,13.276-3.857c0.205-0.018,0.404-0.099,0.609-0.15C83.18,57.585,84.871,57.585,86.562,57.585z"/>
		</g>
	</g>
</g>
<g>
	<g>
		<polygon fill="#FFFFFF" points="84.943,205.13 82.856,210.837 76.878,211.092 81.571,214.87 79.955,220.736 84.943,217.361 
			89.929,220.736 88.312,214.87 93.01,211.092 87.023,210.837 		"/>
		<path fill="#FFFFFF" d="M79.955,221.712c-0.204,0-0.402-0.06-0.573-0.182c-0.333-0.238-0.484-0.658-0.371-1.056l1.444-5.244
			l-4.194-3.378c-0.317-0.255-0.443-0.68-0.317-1.068c0.129-0.388,0.481-0.655,0.89-0.672l5.324-0.222l1.862-5.099
			c0.144-0.386,0.511-0.642,0.922-0.642l0,0c0.409,0,0.776,0.256,0.918,0.642l1.858,5.099l5.328,0.222
			c0.41,0.017,0.766,0.284,0.892,0.672c0.127,0.389,0,0.813-0.316,1.068l-4.198,3.378l1.444,5.244
			c0.111,0.397-0.037,0.817-0.371,1.056c-0.335,0.234-0.781,0.243-1.121,0.015l-4.434-3.001l-4.443,3.001
			C80.336,221.659,80.146,221.712,79.955,221.712z M79.516,211.958l2.667,2.147c0.306,0.245,0.436,0.647,0.328,1.025l-0.908,3.311
			l2.791-1.889c0.332-0.226,0.768-0.226,1.096,0l2.788,1.884l-0.91-3.306c-0.104-0.378,0.026-0.78,0.328-1.025l2.673-2.147
			l-3.388-0.142c-0.396-0.017-0.742-0.275-0.879-0.644l-1.161-3.188l-1.166,3.188c-0.135,0.368-0.483,0.627-0.879,0.644
			L79.516,211.958z"/>
	</g>
	<g>
		<polygon fill="#FFFFFF" points="55.46,205.13 53.374,210.837 47.394,211.092 52.088,214.87 50.472,220.736 55.46,217.361 
			60.444,220.736 58.828,214.87 63.525,211.092 57.54,210.837 		"/>
		<path fill="#FFFFFF" d="M50.472,221.712c-0.203,0-0.402-0.06-0.575-0.182c-0.333-0.238-0.481-0.658-0.373-1.056l1.448-5.244
			l-4.195-3.378c-0.317-0.255-0.442-0.68-0.317-1.068c0.131-0.388,0.481-0.655,0.892-0.672l5.324-0.222l1.862-5.099
			c0.141-0.386,0.508-0.642,0.922-0.642l0,0c0.407,0,0.776,0.256,0.917,0.642l1.858,5.099l5.328,0.222
			c0.411,0.017,0.766,0.284,0.89,0.672c0.126,0.389,0,0.813-0.315,1.068l-4.199,3.378l1.445,5.244
			c0.111,0.397-0.039,0.817-0.37,1.056c-0.338,0.234-0.781,0.243-1.121,0.015l-4.434-3.001l-4.442,3.001
			C50.854,221.659,50.662,221.712,50.472,221.712z M50.031,211.958l2.668,2.147c0.306,0.245,0.437,0.647,0.329,1.025l-0.911,3.311
			l2.792-1.889c0.332-0.226,0.768-0.226,1.098,0l2.786,1.884l-0.911-3.306c-0.104-0.378,0.026-0.78,0.329-1.025l2.672-2.147
			l-3.387-0.142c-0.397-0.017-0.74-0.275-0.879-0.644l-1.162-3.188l-1.166,3.188c-0.135,0.368-0.482,0.627-0.879,0.644
			L50.031,211.958z"/>
	</g>
	<g>
		<polygon fill="#FFFFFF" points="25.976,205.13 23.888,210.837 17.909,211.092 22.604,214.87 20.988,220.736 25.976,217.361 
			30.961,220.736 29.343,214.87 34.044,211.092 28.057,210.837 		"/>
		<path fill="#FFFFFF" d="M20.988,221.712c-0.204,0-0.4-0.06-0.573-0.182c-0.333-0.238-0.482-0.658-0.371-1.056l1.444-5.244
			l-4.193-3.378c-0.318-0.255-0.442-0.68-0.318-1.068c0.131-0.388,0.482-0.655,0.891-0.672l5.328-0.222l1.86-5.099
			c0.141-0.386,0.507-0.642,0.92-0.642l0,0c0.409,0,0.777,0.256,0.919,0.642l1.858,5.099l5.329,0.222
			c0.408,0.017,0.764,0.284,0.89,0.672c0.126,0.389,0,0.813-0.318,1.068l-4.195,3.378l1.445,5.244
			c0.11,0.397-0.038,0.817-0.373,1.056c-0.334,0.234-0.779,0.243-1.119,0.015l-4.435-3.001l-4.441,3.001
			C21.37,221.659,21.18,221.712,20.988,221.712z M20.548,211.958l2.668,2.147c0.306,0.245,0.435,0.647,0.329,1.025l-0.911,3.311
			l2.79-1.889c0.334-0.226,0.77-0.226,1.098,0l2.787,1.884l-0.91-3.306c-0.103-0.378,0.027-0.78,0.329-1.025l2.672-2.147
			l-3.387-0.142c-0.396-0.017-0.741-0.275-0.878-0.644l-1.162-3.188l-1.166,3.188c-0.133,0.368-0.482,0.627-0.88,0.644
			L20.548,211.958z"/>
	</g>
	<g>
		<polygon fill="#FFFFFF" points="114.427,205.13 116.514,210.837 122.493,211.092 117.798,214.87 119.416,220.736 114.427,217.361 
			109.442,220.736 111.054,214.87 106.36,211.092 112.342,210.837 		"/>
		<path fill="#FFFFFF" d="M119.416,221.712c-0.192,0-0.383-0.053-0.551-0.167l-4.438-3.001l-4.438,3.001
			c-0.341,0.233-0.782,0.225-1.119-0.015c-0.332-0.238-0.482-0.658-0.373-1.056l1.443-5.244l-4.195-3.378
			c-0.316-0.255-0.443-0.68-0.316-1.068c0.13-0.388,0.481-0.655,0.89-0.672l5.331-0.222l1.857-5.099
			c0.282-0.774,1.556-0.774,1.838,0l1.862,5.099l5.324,0.222c0.41,0.017,0.761,0.284,0.893,0.672c0.125,0.389,0,0.813-0.318,1.068
			l-4.193,3.378l1.446,5.244c0.109,0.397-0.041,0.817-0.373,1.056C119.812,221.652,119.614,221.712,119.416,221.712z
			 M114.427,216.382c0.191,0,0.383,0.055,0.546,0.171l2.795,1.889l-0.913-3.311c-0.104-0.378,0.026-0.78,0.328-1.025l2.667-2.147
			l-3.379-0.142c-0.396-0.017-0.741-0.275-0.879-0.644l-1.165-3.191l-1.165,3.191c-0.135,0.368-0.483,0.627-0.881,0.644
			l-3.382,0.142l2.668,2.147c0.305,0.245,0.436,0.647,0.327,1.025l-0.908,3.311l2.789-1.889
			C114.041,216.437,114.235,216.382,114.427,216.382z"/>
	</g>
	<g>
		<polygon fill="#FFFFFF" points="143.909,205.13 145.997,210.837 151.976,211.092 147.282,214.87 148.898,220.736 143.909,217.361 
			138.923,220.736 140.539,214.87 135.844,211.092 141.826,210.837 		"/>
		<path fill="#FFFFFF" d="M148.898,221.712c-0.191,0-0.382-0.053-0.551-0.167l-4.438-3.001l-4.438,3.001
			c-0.339,0.233-0.783,0.225-1.115-0.015c-0.332-0.238-0.482-0.658-0.376-1.056l1.442-5.244l-4.194-3.378
			c-0.316-0.255-0.443-0.68-0.312-1.068c0.126-0.388,0.481-0.655,0.886-0.672l5.328-0.222l1.858-5.099
			c0.283-0.774,1.556-0.774,1.84,0l1.866,5.099l5.325,0.222c0.405,0.017,0.761,0.284,0.887,0.672c0.124,0.389,0,0.813-0.317,1.068
			l-4.194,3.378l1.449,5.244c0.108,0.397-0.041,0.817-0.375,1.056C149.301,221.652,149.099,221.712,148.898,221.712z
			 M143.909,216.382c0.192,0,0.384,0.055,0.548,0.171l2.794,1.889l-0.913-3.311c-0.104-0.378,0.026-0.78,0.327-1.025l2.669-2.147
			l-3.38-0.142c-0.393-0.017-0.741-0.275-0.879-0.644l-1.166-3.191l-1.166,3.191c-0.134,0.368-0.481,0.627-0.875,0.644l-3.388,0.142
			l2.668,2.147c0.308,0.245,0.437,0.647,0.334,1.025l-0.908,3.311l2.786-1.889C143.527,216.437,143.718,216.382,143.909,216.382z"/>
	</g>
</g>
</svg>
