<?xml version="1.0" encoding="utf-8"?>
<!-- Generator: Adobe Illustrator 16.0.0, SVG Export Plug-In . SVG Version: 6.00 Build 0)  -->
<!DOCTYPE svg PUBLIC "-//W3C//DTD SVG 1.1//EN" "http://www.w3.org/Graphics/SVG/1.1/DTD/svg11.dtd">
<svg version="1.1" id="Layer_1" xmlns="http://www.w3.org/2000/svg" xmlns:xlink="http://www.w3.org/1999/xlink" x="0px" y="0px"
	 width="190px" height="246.327px" viewBox="0 0 190 246.327" enable-background="new 0 0 190 246.327" xml:space="preserve">
<path fill="#79797A" d="M170.831,130.817h-23.12V76.534c0-29.452-23.622-53.416-52.655-53.416
	c-29.035,0-52.651,23.963-52.651,53.416v54.283H19.282V76.534C19.282,34.333,53.271,0,95.056,0
	c41.779,0,75.775,34.333,75.775,76.534V130.817z"/>
<g>
	<rect x="7.826" y="103.726" fill="#63C2CE" width="174.458" height="134.695"/>
	<path fill="#63C2CE" d="M182.284,246.129H7.826c-4.259,0-7.705-3.449-7.705-7.708V103.726c0-4.264,3.446-7.709,7.705-7.709h174.458
		c4.253,0,7.708,3.445,7.708,7.709v134.695C189.992,242.68,186.537,246.129,182.284,246.129z M15.533,230.712h159.042V111.433
		H15.533V230.712z"/>
</g>
<circle fill="#F16624" cx="95.056" cy="171.073" r="50.688"/>
<g>
	<path fill="#FFFFFF" d="M91.524,198.613c-7.967-0.753-13.754-3.608-18.038-7.741l6.841-9.695c3.607,3.608,9.167,6.612,16.007,6.612
		c4.435,0,7.141-1.728,7.141-4.133c0-6.84-28.409-1.354-28.409-20.667c0-7.591,5.786-14.43,16.459-15.707v-7.065h8.343v7.141
		c6.012,0.826,11.273,3.08,15.556,6.687l-7.062,9.245c-4.21-3.456-9.696-5.186-14.656-5.186c-3.758,0-5.411,1.502-5.411,3.608
		c0,6.388,28.334,1.728,28.334,20.366c0,9.02-5.938,15.331-16.76,16.535v6.839h-8.343V198.613z"/>
</g>
</svg>
