<?xml version="1.0" encoding="utf-8"?>
<!-- Generator: Adobe Illustrator 19.1.0, SVG Export Plug-In . SVG Version: 6.00 Build 0)  -->
<!DOCTYPE svg PUBLIC "-//W3C//DTD SVG 1.0//EN" "http://www.w3.org/TR/2001/REC-SVG-20010904/DTD/svg10.dtd">
<svg version="1.0" xmlns="http://www.w3.org/2000/svg" xmlns:xlink="http://www.w3.org/1999/xlink" x="0px" y="0px"
	 viewBox="0 0 178 178" style="enable-background:new 0 0 178 178;" xml:space="preserve">
<g id="Layer_5" style="display:none;">
	<path style="display:inline;fill:#FFFFFF;stroke:#231F20;stroke-miterlimit:10;" d="M88,6c47.2,0,85.5,38.3,85.5,85.5
		S135.2,177,88,177S2.5,138.7,2.5,91.5S40.8,6,88,6z"/>
</g>
<g id="book_with_confidence" style="display:none;">
	<path style="display:inline;fill-rule:evenodd;clip-rule:evenodd;fill:#61C1CE;" d="M124.1,123.1c0-5.4-0.1-10.7,0-16.1
		c0.1-2.8-0.9-4-3.8-3.9c-3.8,0.2-7.7-0.2-11.6,0.1c-5,0.4-8.6-1.7-11.4-5.5c-6.6-9.1-13.2-18.1-19.8-27.2c-3.6-5-4.9-10.8-5.3-16.8
		c-0.2-3.2-0.6-6.2-4.3-7.2c-3.3-0.9-6.3,0.7-8.4,4.2c-4.9,8.3-5,25,3.2,32c0.4,0.4,0.8,0.8,1.2,1.3c2.7,3.6,2,5.7-2.4,6
		c-5.8,0.4-11.7,0.2-17.5,0.3c-3.3,0-6.6-0.1-9.8,0.2c-3.6,0.3-6.4,2.2-7.7,5.8c-1.3,3.5-0.2,6.6,2.5,8.8c2.2,1.8,2.8,3.3,1.2,6.1
		c-1.7,2.9-1.2,6.2,1,8.9c1.5,1.9,1.6,3.6,0.7,5.8c-1.7,4.3-0.9,6.9,2.9,9.7c1.8,1.4,2.8,2.7,2.6,5.2c-0.4,5.4,1.9,8.5,7.3,9.4
		c7.6,1.3,15.4,0.7,23.1,0.4c6.6-0.3,12.8-2.3,18.9-4.7c7.5-2.8,15.3-3.8,23.4-3c3.5,0.4,7,0,10.5,0.2c2.8,0.1,3.7-1.2,3.6-3.8
		C124,133.8,124.1,128.5,124.1,123.1z"/>
	<g style="display:inline;">
		<path style="fill:#F16623;" d="M92.7,10.7C84.1,17,78.8,25.6,78.8,35l0,0C78.8,51.5,95.5,65.8,118,68.8l0,0
			c0.4,0.1,0.8,0.3,1.1,0.7l0,0c0.2,0.4,0.2,0.9,0.1,1.3l0,0c-3,7.1-8.2,12.4-12.3,15.7l0,0c17-4.4,24.5-11.8,27.8-17l0,0
			c0.2-0.4,0.6-0.6,1-0.7l0,0c22.6-3,39.4-17.3,39.3-33.9l0,0c0-9.4-5.2-17.9-13.9-24.3l0,0c-8.7-6.3-20.8-10.3-34.2-10.2l0,0
			c0,0,0,0,0,0l0,0C113.5,0.4,101.4,4.4,92.7,10.7L92.7,10.7z"/>
	</g>
	<g style="display:inline;">
		<text transform="matrix(1 0 0 1 100.0806 44.9941)" style="fill:#FFFFFF; font-family:'ProximaNova-Extrabld'; font-size:26px;">YAY!</text>
	</g>
</g>
<g id="compare_quotes" style="display:none;">
	<path style="display:inline;fill:#F16623;" d="M90.4,125.4C96,112.8,102,100.7,108.5,89c6.5-11.7,13.4-22.8,20.9-33.3
		c7.5-10.5,13.1-17.7,17.1-21.6c3.9-3.9,6.7-6.2,8.2-6.9c1.5-0.7,4.8-1.4,10-2.1c5.1-0.7,8.7-1.1,10.6-1.1c1.2,0,1.8,0.5,1.8,1.4
		c0,0.6-0.2,1.1-0.6,1.7c-0.4,0.5-1.7,1.8-3.8,3.6c-10.5,9.7-22,24-34.5,43c-12.6,19-23,38.9-31.5,59.7c-3.4,8.3-5.7,13.3-7,15
		c-1.3,1.7-5.3,2.6-12.1,2.6c-4.9,0-7.8-0.5-8.7-1.5c-1-1-2.9-3.7-5.8-8.1c-4.7-7.3-10.2-14.3-16.4-20.8c-3.1-3.3-4.7-5.8-4.7-7.5
		c0-2.3,1.7-4.7,5.1-7.1c3.4-2.4,6.2-3.6,8.5-3.6c2.9,0,6.4,1.6,10.7,4.8C80.5,110.5,85.2,116.5,90.4,125.4z"/>
	<path style="display:inline;fill:#61C1CE;" d="M105.5,86.5L88.3,47.6c-3.2,0.9-6.7,2.7-10.5,5.4L26.1,6.5l17.1-3l44.2,39.6
		c2,1.7,3.2,3,3.6,3.8c0.5,0.8,1.2,2.2,2.2,4.5l16.9,38.2c0.5,1.1,0.8,1.9,1,2.6c0.5,1.5,0.5,2.9,0.1,4.2c-0.4,1.3-1.2,2.2-2.4,2.6
		c-1.5,0.5-3.6,0.3-6.2-0.5L62.4,85.8c-2.1-0.6-3.6-1.2-4.4-1.5c-0.9-0.4-2.3-1.5-4.4-3.3L9.3,41.4l1-17.4L62,70.2
		c-1.8,3.6-3.1,7.3-3.9,11.2l40.4,12.7C99.5,90.2,101.9,87.7,105.5,86.5z M74.7,55.4c-4.1,3.8-7.6,7.7-10.4,11.6L12.2,20.4L22.6,8.8
		L74.7,55.4z"/>
</g>
<g id="request_the_best" style="display:none;">
	<g style="display:inline;">
		<g>
			<circle style="fill:#61C3CE;" cx="88" cy="65" r="33"/>
		</g>
	</g>
	<path style="display:inline;fill:#61C3CE;" d="M88,101c-26.3,0-58,23.7-58,53c0,0.1,0,0.2,0,0.3C45.2,168.4,65.6,177,88,177
		s42.8-8.6,58-22.7c0-0.1,0-0.2,0-0.3C146,124.7,114.3,101,88,101z"/>
	<path style="display:inline;fill-rule:evenodd;clip-rule:evenodd;fill:#F16623;" d="M128.3,100.9c0.7-0.9,1.2-1.6,1.8-2.3
		c2.7-3.4,6.3-4.9,10.6-4.8c5.9,0.2,10.6,4.4,11.9,8.9c0.8,3,0.3,5.8-0.8,8.6c-1.3,3.2-3.4,5.8-5.8,8.2c-5.5,5.5-10.9,11-16.4,16.4
		c-1,1-1.3,1-2.4,0c-5.8-5.9-11.7-11.7-17.4-17.6c-2.8-2.9-4.9-6.2-5.7-10.2c-0.8-4.2,0.4-7.7,3.4-10.7c2.1-2,4.6-3.3,7.4-3.6
		c5.5-0.5,9.9,1.5,12.9,6.2C127.9,100.3,128.1,100.6,128.3,100.9z"/>
</g>
<g id="discover_the_possibilities">
	<g>
		<rect x="64.5" y="30.2" style="fill-rule:evenodd;clip-rule:evenodd;fill:#F16623;" width="59.7" height="69.3"/>
		<rect x="68.1" y="34" style="fill-rule:evenodd;clip-rule:evenodd;fill:#FFFFFF;" width="52.4" height="48.5"/>
		<g>
			<defs>
				<rect id="SVGID_1_" x="68.1" y="34" width="52.4" height="48.5"/>
			</defs>
			<clipPath id="SVGID_2_">
				<use xlink:href="#SVGID_1_"  style="overflow:visible;"/>
			</clipPath>
			<g style="clip-path:url(#SVGID_2_);">
				<path style="fill:#61C1CE;" d="M71,92.7c0-0.7,0-1.3,0-2c0-0.1,0.1-0.3,0.1-0.4c0.1-2.3,0.5-4.5,1.1-6.7c1.4-5.4,3.9-10.2,8-14
					c3.5-3.3,7.6-5.4,12.5-5.8c3.7-0.3,7.2,0.5,10.5,2.3c4,2.2,7.1,5.4,9.4,9.4c3.1,5.2,4.4,10.9,4.5,16.9c0,0.5-0.2,0.9-0.6,1.1
					c-0.5,0.3-0.9,0.6-1.4,0.8c-2,0.9-4.1,1.3-6.2,1.6c-3.6,0.6-7.2,0.9-10.9,1c-0.3,0-0.5,0-0.8,0.1c-2.1,0-4.3,0-6.4,0
					c-0.2,0-0.4-0.1-0.6-0.1c-3.8-0.1-7.6-0.4-11.4-1.1c-2-0.3-4-0.7-5.8-1.5C72.2,94,71.4,93.6,71,92.7z"/>
				<path style="fill-rule:evenodd;clip-rule:evenodd;fill:#61C1CE;" d="M94.9,37.5c0.9,0.2,1.8,0.3,2.6,0.5
					c2.1,0.6,3.9,1.7,5.4,3.2c1.7,1.7,2.8,3.8,3.3,6.1c0.6,2.7,0.3,5.3-0.8,7.8c-1.1,2.5-2.8,4.4-5.2,5.7c-2.2,1.3-4.6,1.8-7.1,1.6
					c-3.1-0.2-5.8-1.4-8-3.6c-2-2-3.2-4.3-3.6-7.1c-0.4-2.7,0-5.2,1.3-7.6c1.2-2.4,3-4.1,5.4-5.4c1.5-0.8,3-1.2,4.7-1.4
					c0.1,0,0.1,0,0.2-0.1C93.7,37.5,94.3,37.5,94.9,37.5z"/>
			</g>
		</g>
	</g>
	<g>
		
			<rect x="83.3" y="77.7" transform="matrix(0.9596 0.2812 -0.2812 0.9596 36.1656 -27.2758)" style="fill-rule:evenodd;clip-rule:evenodd;fill:#F16623;" width="59.7" height="69.3"/>
		
			<rect x="88.8" y="81.8" transform="matrix(0.9596 0.2812 -0.2812 0.9596 34.4736 -28.0469)" style="fill-rule:evenodd;clip-rule:evenodd;fill:#FFFFFF;" width="52.4" height="48.5"/>
		<g>
			<defs>
				
					<rect id="SVGID_3_" x="88.8" y="81.8" transform="matrix(0.9596 0.2812 -0.2812 0.9596 34.4736 -28.0469)" width="52.4" height="48.5"/>
			</defs>
			<clipPath id="SVGID_4_">
				<use xlink:href="#SVGID_3_"  style="overflow:visible;"/>
			</clipPath>
			<g style="clip-path:url(#SVGID_4_);">
				<path style="fill:#61C1CE;" d="M82.9,132.6c0.2-0.6,0.4-1.3,0.6-1.9c0.1-0.1,0.1-0.2,0.2-0.4c0.7-2.2,1.7-4.2,2.9-6.2
					c2.9-4.8,6.6-8.6,11.6-11.2c4.3-2.2,8.8-3,13.6-2c3.7,0.8,6.8,2.5,9.5,5.2c3.3,3.2,5.3,7.2,6.4,11.6c1.5,5.8,1.2,11.7-0.4,17.4
					c-0.1,0.5-0.4,0.8-0.9,0.9c-0.5,0.2-1.1,0.3-1.6,0.4c-2.1,0.3-4.3,0.1-6.4-0.2c-3.6-0.4-7.2-1.2-10.7-2.1
					c-0.3-0.1-0.5-0.1-0.8-0.2c-2-0.6-4.1-1.2-6.1-1.8c-0.2-0.1-0.4-0.2-0.6-0.2c-3.6-1.2-7.2-2.5-10.6-4.2
					c-1.8-0.9-3.6-1.8-5.1-3.1C83.7,134.1,83,133.5,82.9,132.6z"/>
				<path style="fill-rule:evenodd;clip-rule:evenodd;fill:#61C1CE;" d="M121.3,86.3c0.8,0.4,1.6,0.8,2.4,1.2
					c1.8,1.1,3.3,2.7,4.3,4.6c1.1,2.1,1.6,4.4,1.5,6.8c-0.2,2.7-1.2,5.2-3,7.2c-1.8,2.1-4,3.4-6.6,4c-2.5,0.6-4.9,0.5-7.3-0.4
					c-2.9-1.1-5.1-3-6.7-5.7c-1.4-2.4-1.9-5.1-1.5-7.8c0.4-2.7,1.5-5,3.4-7c1.8-1.9,4.1-3.1,6.7-3.6c1.6-0.3,3.2-0.3,4.9,0
					c0.1,0,0.1,0,0.2,0C120.2,86,120.8,86.2,121.3,86.3z"/>
			</g>
		</g>
	</g>
	<g>
		
			<rect x="28.3" y="57.8" transform="matrix(0.9673 -0.2538 0.2538 0.9673 -21.5501 17.7828)" style="fill-rule:evenodd;clip-rule:evenodd;fill:#F16623;" width="59.7" height="69.3"/>
		
			<rect x="30.3" y="61.8" transform="matrix(0.9673 -0.2538 0.2538 0.9673 -19.9978 17.154)" style="fill-rule:evenodd;clip-rule:evenodd;fill:#FFFFFF;" width="52.4" height="48.5"/>
		<g>
			<defs>
				
					<rect id="SVGID_5_" x="30.3" y="61.8" transform="matrix(0.9673 -0.2538 0.2538 0.9673 -19.9978 17.154)" width="52.4" height="48.5"/>
			</defs>
			<clipPath id="SVGID_6_">
				<use xlink:href="#SVGID_5_"  style="overflow:visible;"/>
			</clipPath>
			<g style="clip-path:url(#SVGID_6_);">
				<path style="fill:#61C1CE;" d="M42.6,125.3c-0.2-0.6-0.3-1.3-0.5-1.9c0-0.1,0-0.3,0-0.4c-0.5-2.2-0.7-4.5-0.7-6.8
					c0-5.6,1.2-10.8,4.2-15.6c2.6-4.1,6-7.1,10.6-8.7c3.5-1.2,7.1-1.3,10.8-0.4c4.5,1.1,8.2,3.4,11.5,6.7c4.3,4.3,7,9.4,8.6,15.2
					c0.1,0.5,0,0.9-0.3,1.2c-0.4,0.4-0.7,0.8-1.2,1.2c-1.7,1.3-3.6,2.3-5.6,3.1c-3.3,1.5-6.8,2.7-10.2,3.7c-0.3,0.1-0.5,0.2-0.8,0.3
					c-2.1,0.5-4.1,1.1-6.2,1.6c-0.2,0-0.4,0-0.6,0.1c-3.7,0.9-7.5,1.5-11.3,1.9c-2,0.2-4,0.3-6,0C44.1,126.2,43.3,126,42.6,125.3z"
					/>
				<path style="fill-rule:evenodd;clip-rule:evenodd;fill:#61C1CE;" d="M51.8,65.9c0.9-0.1,1.8-0.2,2.7-0.2c2.2,0,4.2,0.6,6.1,1.7
					c2.1,1.2,3.7,2.9,4.8,5.1c1.2,2.4,1.6,5,1.2,7.7c-0.4,2.7-1.6,5-3.6,6.9c-1.8,1.8-3.9,2.9-6.4,3.4c-3,0.6-5.9,0.1-8.6-1.4
					c-2.4-1.4-4.2-3.4-5.3-6c-1.1-2.5-1.3-5.1-0.7-7.7c0.6-2.6,1.9-4.8,3.8-6.6c1.2-1.1,2.6-1.9,4.2-2.5c0.1,0,0.1-0.1,0.2-0.1
					C50.6,66.2,51.2,66,51.8,65.9z"/>
			</g>
		</g>
	</g>
</g>
</svg>
